<svg width="80" height="80" viewBox="0 0 80 80" fill="none" xmlns="http://www.w3.org/2000/svg">
<rect width="80" height="80" rx="40" fill="white"/>
<path d="M40 16C26.767 16 16 26.767 16 40C16 47.091 19.094 53.472 24 57.869V57.886L24.348 58.186C24.409 58.239 24.476 58.283 24.538 58.335C24.969 58.699 25.413 59.048 25.869 59.382C25.992 59.472 26.115 59.559 26.24 59.646C26.724 59.986 27.219 60.31 27.727 60.614C27.812 60.665 27.899 60.713 27.984 60.762C28.541 61.086 29.11 61.391 29.694 61.67C29.7 61.673 29.706 61.675 29.712 61.678C30.961 62.273 32.271 62.76 33.627 63.134C33.652 63.141 33.677 63.149 33.702 63.155C34.343 63.33 34.995 63.477 35.656 63.598C35.718 63.609 35.779 63.62 35.841 63.631C36.479 63.743 37.125 63.832 37.78 63.893C37.855 63.9 37.93 63.904 38.004 63.91C38.663 63.965 39.327 64 40 64C40.673 64 41.337 63.965 41.996 63.91C42.071 63.904 42.146 63.9 42.22 63.893C42.875 63.833 43.521 63.743 44.159 63.631C44.221 63.62 44.282 63.609 44.344 63.598C45.005 63.477 45.657 63.33 46.298 63.155C46.323 63.148 46.348 63.141 46.373 63.134C47.729 62.76 49.039 62.273 50.288 61.678C50.294 61.675 50.3 61.673 50.306 61.67C50.89 61.391 51.459 61.085 52.016 60.762C52.102 60.712 52.188 60.665 52.273 60.614C52.782 60.31 53.277 59.985 53.76 59.646C53.884 59.559 54.008 59.472 54.131 59.382C54.587 59.048 55.031 58.699 55.462 58.335C55.524 58.283 55.591 58.239 55.652 58.186L56 57.886V57.869C60.906 53.471 64 47.091 64 40C64 26.767 53.233 16 40 16ZM40 40C35.589 40 32 36.411 32 32C32 27.589 35.589 24 40 24C44.411 24 48 27.589 48 32C48 36.411 44.411 40 40 40ZM43 42C49.065 42 54 46.935 54 53V56.958C53.958 56.993 53.914 57.025 53.872 57.06C53.477 57.381 53.072 57.686 52.658 57.978C52.566 58.043 52.476 58.11 52.384 58.173C51.937 58.478 51.478 58.764 51.011 59.035C50.926 59.085 50.84 59.134 50.754 59.183C50.264 59.458 49.765 59.716 49.256 59.952C49.203 59.977 49.149 60.001 49.095 60.025C47.434 60.78 45.684 61.327 43.883 61.651C43.826 61.661 43.769 61.672 43.712 61.682C43.145 61.779 42.573 61.854 41.997 61.907C41.918 61.914 41.838 61.919 41.758 61.925C41.175 61.97 40.589 62 40 62C39.411 62 38.825 61.97 38.242 61.923C38.163 61.917 38.083 61.912 38.003 61.905C37.427 61.852 36.855 61.778 36.288 61.68C36.231 61.67 36.174 61.66 36.117 61.649C34.316 61.325 32.566 60.778 30.905 60.023C30.851 59.998 30.797 59.975 30.744 59.95C30.235 59.714 29.736 59.456 29.246 59.181C29.16 59.132 29.075 59.083 28.989 59.033C28.522 58.763 28.063 58.476 27.616 58.171C27.523 58.108 27.433 58.041 27.342 57.976C26.928 57.684 26.523 57.38 26.128 57.058C26.086 57.024 26.042 56.991 26 56.956V53C26 46.935 30.935 42 37 42H43ZM56 55.076V53C56 46.729 51.536 41.481 45.62 40.265C48.261 38.464 50 35.431 50 32C50 26.486 45.514 22 40 22C34.486 22 30 26.486 30 32C30 35.431 31.739 38.464 34.38 40.265C28.464 41.481 24 46.729 24 53V55.076C20.284 51.135 18 45.831 18 40C18 27.869 27.869 18 40 18C52.131 18 62 27.869 62 40C62 45.831 59.716 51.135 56 55.076Z" fill="#8C30F5"/>
<circle cx="40" cy="40" r="23" stroke="#21B7E6" stroke-width="2"/>
</svg>
